<svg xmlns="http://www.w3.org/2000/svg" viewBox="0 0 1024 1024" role="img" aria-label="Fiveish Meals app icon">
  <defs>
    <linearGradient id="bg" x1="170" y1="110" x2="850" y2="920" gradientUnits="userSpaceOnUse">
      <stop offset="0" stop-color="#FFF4C7"/>
      <stop offset="0.58" stop-color="#FFE1A3"/>
      <stop offset="1" stop-color="#FFB45F"/>
    </linearGradient>
    <linearGradient id="body" x1="248" y1="330" x2="776" y2="844" gradientUnits="userSpaceOnUse">
      <stop offset="0" stop-color="#FFFFFF"/>
      <stop offset="0.68" stop-color="#F7F1E7"/>
      <stop offset="1" stop-color="#E7D8C2"/>
    </linearGradient>
    <linearGradient id="lid" x1="274" y1="248" x2="750" y2="454" gradientUnits="userSpaceOnUse">
      <stop offset="0" stop-color="#FFFFFF"/>
      <stop offset="1" stop-color="#EDE1D1"/>
    </linearGradient>
    <linearGradient id="steam" x1="372" y1="94" x2="674" y2="284" gradientUnits="userSpaceOnUse">
      <stop offset="0" stop-color="#FFFFFF"/>
      <stop offset="1" stop-color="#FF8A2A"/>
    </linearGradient>
    <filter id="softShadow" x="-20%" y="-20%" width="140%" height="150%">
      <feDropShadow dx="0" dy="28" stdDeviation="30" flood-color="#7A3F00" flood-opacity="0.22"/>
    </filter>
    <filter id="innerGlow" x="-10%" y="-10%" width="120%" height="120%">
      <feGaussianBlur stdDeviation="10" result="blur"/>
      <feComposite in="SourceGraphic" in2="blur" operator="over"/>
    </filter>
  </defs>

  <rect width="1024" height="1024" rx="228" fill="url(#bg)"/>
  <path d="M126 792C257 930 645 955 866 778C917 737 888 667 814 674C658 688 567 787 398 750C250 718 188 666 119 711C90 730 95 759 126 792Z" fill="#E95A0C" opacity="0.16"/>
  <circle cx="194" cy="223" r="54" fill="#FFFFFF" opacity="0.34"/>
  <circle cx="836" cy="224" r="34" fill="#FFFFFF" opacity="0.35"/>
  <circle cx="806" cy="810" r="68" fill="#FFFFFF" opacity="0.2"/>

  <g fill="none" stroke="#FFF4E4" stroke-width="38" stroke-linecap="round" opacity="0.92">
    <path d="M382 264C336 221 352 174 408 143C448 121 460 86 436 58"/>
    <path d="M512 244C466 201 482 154 538 123C578 101 590 66 566 38"/>
    <path d="M642 264C596 221 612 174 668 143C708 121 720 86 696 58"/>
  </g>

  <g filter="url(#softShadow)">
    <path d="M288 405C288 352 331 309 384 309H640C693 309 736 352 736 405V436H288V405Z" fill="url(#lid)" stroke="#1D1836" stroke-width="22"/>
    <path d="M404 307C404 280 426 258 453 258H571C598 258 620 280 620 307V318H404V307Z" fill="#FF6B00" stroke="#1D1836" stroke-width="20"/>
    <path d="M244 450C244 414 273 385 309 385H715C751 385 780 414 780 450V748C780 812 728 864 664 864H360C296 864 244 812 244 748V450Z" fill="url(#body)" stroke="#1D1836" stroke-width="26"/>
    <path d="M206 518C176 518 152 542 152 572V662C152 692 176 716 206 716H249V518H206Z" fill="#F3E8D7" stroke="#1D1836" stroke-width="22"/>
    <path d="M818 518C848 518 872 542 872 572V662C872 692 848 716 818 716H775V518H818Z" fill="#F3E8D7" stroke="#1D1836" stroke-width="22"/>

    <rect x="328" y="495" width="368" height="228" rx="68" fill="#FFF9EF" stroke="#1D1836" stroke-width="20"/>
    <circle cx="425" cy="596" r="25" fill="#1D1836"/>
    <circle cx="599" cy="596" r="25" fill="#1D1836"/>
    <path d="M464 653C488 682 535 682 560 653" fill="none" stroke="#1D1836" stroke-width="22" stroke-linecap="round"/>
    <circle cx="371" cy="648" r="21" fill="#FF8A2A" opacity="0.56"/>
    <circle cx="653" cy="648" r="21" fill="#FF8A2A" opacity="0.56"/>

    <g filter="url(#innerGlow)">
      <circle cx="655" cy="458" r="28" fill="#FF6B00" stroke="#1D1836" stroke-width="12"/>
      <circle cx="724" cy="458" r="18" fill="#FFB020" stroke="#1D1836" stroke-width="10"/>
    </g>

    <path d="M360 865H426V910H360C343 910 330 897 330 880V867C340 866 350 865 360 865Z" fill="#1D1836"/>
    <path d="M598 865H664C674 865 684 866 694 867V880C694 897 681 910 664 910H598V865Z" fill="#1D1836"/>
  </g>
</svg>
